C:\Users\israe\Dropbox\PhDWork\ExperimentalData\subject1\145\P1S145W08_filtered35.mot
nRows=8
nColumns=28

name C:\Users\israe\Dropbox\PhDWork\ExperimentalData\subject1\145\P1S145W08_filtered35.mot
datacolumns 28
datarows 8
range 0.9500000000 0.9570000000
endheader
time	ground_force_1_vx	ground_force_1_vy	ground_force_1_vz	ground_force_1_px	ground_force_1_py	ground_force_1_pz	ground_moment_1_mx	ground_moment_1_my	ground_moment_1_mz	ground_force_2_vx	ground_force_2_vy	ground_force_2_vz	ground_force_2_px	ground_force_2_py	ground_force_2_pz	ground_moment_2_mx	ground_moment_2_my	ground_moment_2_mz	ground_force_3_vx	ground_force_3_vy	ground_force_3_vz	ground_force_3_px	ground_force_3_py	ground_force_3_pz	ground_moment_3_mx	ground_moment_3_my	ground_moment_3_mz
        0.9500000000	       -0.0000044210	        0.0000302331	       -0.0002303372	        0.2000000000	        0.0000000000	       -0.9030000000	        0.0000024982	        0.0000173264	        0.0000097449	      -21.4256846542	      788.8451558900	      -82.2377514478	        0.2000000000	        0.0000000000	       -0.3000000000	      131.9554367862	       12.0276574610	       31.5314150215	       -0.0000000000	        0.0000000000	        0.0000000000	        0.2000000000	       -0.0000000000	        0.3030000000	       -0.0000000000	        0.0000000000	       -0.0000000000	
        0.9510000000	        0.0000003229	        0.0000000000	       -0.0002278200	        0.2000000000	        0.0000000000	       -0.9030000000	       -0.0000203705	        0.0000275966	        0.0000202245	      -21.4933593394	      793.9975505960	      -83.6926290951	        0.2000000000	        0.0000000000	       -0.3000000000	      133.0962877717	       12.0828268117	       31.7402734121	        0.0000000000	        0.0000000000	        0.0000000000	        0.2000000000	       -0.0000000000	        0.3030000000	       -0.0000000000	        0.0000000000	       -0.0000000000	
        0.9520000000	        0.0000072830	        0.0000000000	       -0.0002030720	        0.2000000000	        0.0000000000	       -0.9030000000	       -0.0000521853	        0.0000401807	        0.0000337980	      -21.5502915337	      799.0292309904	      -85.1433257650	        0.2000000000	        0.0000000000	       -0.3000000000	      134.2208167427	       12.1345805284	       31.9407402785	        0.0000000000	        0.0000000000	        0.0000000000	        0.2000000000	       -0.0000000000	        0.3030000000	       -0.0000000000	        0.0000000000	        0.0000000000	
        0.9530000000	        0.0000168657	        0.0000000000	       -0.0001478532	        0.2000000000	        0.0000000000	       -0.9030000000	       -0.0000942435	        0.0000550122	        0.0000506767	      -21.5955420071	      803.9294202990	      -86.5904309035	        0.2000000000	        0.0000000000	       -0.3000000000	      135.3285853614	       12.1828009284	       32.1323619564	        0.0000000000	        0.0000000000	       -0.0000000000	        0.2000000000	       -0.0000000000	        0.3030000000	        0.0000000000	       -0.0000000000	        0.0000000000	
        0.9540000000	        0.0000294279	        0.0000000000	       -0.0000528366	        0.2000000000	        0.0000000000	       -0.9030000000	       -0.0001475111	        0.0000717853	        0.0000708666	      -21.6297504248	      808.6927223002	      -88.0341590188	        0.2000000000	        0.0000000000	       -0.3000000000	      136.4185456456	       12.2273803321	       32.3149908675	        0.0000000000	        0.0000000000	       -0.0000000000	        0.2000000000	       -0.0000000000	        0.3030000000	        0.0000000000	       -0.0000000000	        0.0000000000	
        0.9550000000	        0.0000452200	        0.0000000000	        0.0000920454	        0.2000000000	        0.0000000000	       -0.9030000000	       -0.0002123758	        0.0000898703	        0.0000940711	      -21.6544418875	      813.3186429219	      -89.4749966809	        0.2000000000	        0.0000000000	       -0.3000000000	      137.4893042912	       12.2683227108	       32.4884750972	        0.0000000000	        0.0000000000	       -0.0000000000	        0.2000000000	       -0.0000000000	        0.3030000000	        0.0000000000	       -0.0000000000	        0.0000000000	
        0.9560000000	        0.0000643130	        0.0000000000	        0.0002970221	        0.2000000000	        0.0000000000	       -0.9030000000	       -0.0002883380	        0.0001082183	        0.0001195744	      -21.6711492797	      817.8083296595	      -90.9144603528	        0.2000000000	        0.0000000000	       -0.3000000000	      138.5396284073	       12.3058286653	       32.6527368366	        0.0000000000	        0.0000000000	       -0.0000000000	        0.2000000000	       -0.0000000000	        0.3030000000	        0.0000000000	       -0.0000000000	        0.0000000000	
        0.9570000000	        0.0000865062	        0.0000000000	        0.0005716160	        0.2000000000	        0.0000000000	       -0.9030000000	       -0.0003736370	        0.0001252593	        0.0001461097	      -21.6811124514	      822.1624697566	      -92.3545174965	        0.2000000000	        0.0000000000	       -0.3000000000	      139.5686255492	       12.3402512059	       32.8079784087	        0.0000000000	        0.0000000000	       -0.0000000000	        0.2000000000	       -0.0000000000	        0.3030000000	        0.0000000000	       -0.0000000000	        0.0000000000	
